<svg width="158" height="39" viewBox="0 0 158 39" fill="none" xmlns="http://www.w3.org/2000/svg">
<g clip-path="url(#clip0_75_40)">
<path d="M30.2809 29.7017V25.1726C31.2639 25.9183 32.7885 26.6639 34.7895 26.6639C37.5979 26.6639 38.8216 25.2627 38.8216 23.8915C38.8216 22.7604 38.1947 21.8046 36.5548 21.0039L34.3181 19.9029C31.8406 18.6818 30.2559 16.9853 30.2559 14.3629C30.2559 10.6396 33.5407 7.92712 38.7664 7.92712C40.7073 7.92712 42.2018 8.28244 42.9741 8.73285V13.2619C42.1667 12.7264 40.7675 12.251 39.273 12.251C37.0062 12.251 35.6922 13.1468 35.6922 14.5431C35.6922 15.4639 36.2589 16.0945 37.633 16.75L39.7845 17.821C42.6782 19.2823 44.0523 21.2491 44.0523 23.9265C44.0523 27.8 41.274 31.0779 35.3662 31.0779C33.2749 31.0779 31.3943 30.5124 30.291 29.7067L30.2809 29.7017ZM52.5228 19.5726V24.487C52.5228 25.7982 53.1798 26.6039 54.5539 26.6039C55.0905 26.6039 55.6271 26.4838 55.9581 26.3637V30.6225C55.4516 30.8627 54.4335 31.0679 53.4807 31.0679C49.8698 31.0679 47.6883 28.7158 47.6883 24.7823V19.5676H45.3312V15.6641H47.6883V11.1951H52.5228V15.6641H55.9581V19.5676H52.5228V19.5726ZM57.8388 23.0857C57.8388 18.5867 61.4195 15.1936 66.0184 15.1936C70.6172 15.1936 74.1378 18.6217 74.1378 23.0857C74.1378 27.5497 70.5871 31.0679 66.0184 31.0679C61.4496 31.0679 57.8388 27.6698 57.8388 23.0857ZM69.569 23.1158C69.569 20.8537 68.0445 19.3324 66.0184 19.3324C63.9923 19.3324 62.4677 20.8537 62.4677 23.1158C62.4677 25.3778 63.9923 26.8691 66.0184 26.8691C68.0445 26.8691 69.569 25.3478 69.569 23.1158ZM76.0184 23.1158C76.0184 18.7068 79.213 15.1936 84.0777 15.1936C85.3013 15.1936 86.4949 15.4339 87.3024 15.8492L87.2422 20.048C86.7658 19.7477 85.9282 19.4224 84.7346 19.4224C82.2572 19.4224 80.8229 21.0339 80.8229 23.1158C80.8229 25.1976 82.2572 26.8391 84.7346 26.8391C85.8981 26.8391 86.7658 26.5138 87.2422 26.2135L87.3024 30.3823C86.5551 30.7676 85.3013 31.0679 84.0476 31.0679C79.1829 31.0679 76.0184 27.5547 76.0184 23.1158ZM100.708 30.5925L95.2161 23.0857V30.5925H90.4117V8.25242H95.2161V22.3451L100.647 15.6741H105.933L100.261 22.5252L106.32 30.5975H100.708V30.5925ZM123.757 22.9356C123.757 27.6448 120.382 31.0679 115.607 31.0679C110.833 31.0679 107.694 27.7299 107.694 22.5753V8.25242H112.202V17.5758C113.13 16.0844 114.71 15.1936 116.831 15.1936C120.743 15.1936 123.757 18.4716 123.757 22.9406V22.9356ZM119.218 23.1158C119.218 20.8237 117.844 19.3624 115.698 19.3624C113.551 19.3624 112.207 20.8537 112.207 23.1158C112.207 25.3778 113.642 26.8992 115.698 26.8992C117.754 26.8992 119.218 25.4078 119.218 23.1158ZM125.608 23.0857C125.608 18.5867 129.188 15.1936 133.787 15.1936C138.386 15.1936 141.907 18.6217 141.907 23.0857C141.907 27.5497 138.356 31.0679 133.787 31.0679C129.218 31.0679 125.608 27.6698 125.608 23.0857ZM137.338 23.1158C137.338 20.8537 135.813 19.3324 133.787 19.3324C131.761 19.3324 130.236 20.8537 130.236 23.1158C130.236 25.3778 131.761 26.8691 133.787 26.8691C135.813 26.8691 137.338 25.3478 137.338 23.1158ZM152.684 30.5925L149.906 26.0334L147.127 30.5925H141.902L147.217 22.7855L142.263 15.6641H147.518L149.906 19.6577L152.413 15.6641H157.609L152.624 22.7254L157.995 30.5925H152.679H152.684Z" fill="url(#paint0_linear_75_40)"/>
<path d="M15.622 23.401L7.81851 15.614V15.599L7.81349 15.604L7.80346 15.599V15.614L0 23.401L7.81349 31.198L15.622 23.406L15.632 39L23.4405 31.203L15.622 23.401Z" fill="url(#paint1_linear_75_40)"/>
<path d="M7.81349 15.599L15.622 7.80701L15.632 23.401L23.4405 15.604L15.622 7.802L7.81851 0.0150135V0L7.81349 0.00500449L7.80346 0V0.0150135L0 7.802L7.81349 15.599Z" fill="url(#paint2_linear_75_40)"/>
</g>
<defs>
<linearGradient id="paint0_linear_75_40" x1="30.2508" y1="19.4975" x2="158" y2="19.4975" gradientUnits="userSpaceOnUse">
<stop stop-color="#7F0046"/>
<stop offset="1" stop-color="#571133"/>
</linearGradient>
<linearGradient id="paint1_linear_75_40" x1="0" y1="27.2995" x2="23.4405" y2="27.2995" gradientUnits="userSpaceOnUse">
<stop stop-color="#7F0046"/>
<stop offset="1" stop-color="#571133"/>
</linearGradient>
<linearGradient id="paint2_linear_75_40" x1="0" y1="11.7005" x2="23.4405" y2="11.7005" gradientUnits="userSpaceOnUse">
<stop stop-color="#7F0046"/>
<stop offset="1" stop-color="#571133"/>
</linearGradient>
<clipPath id="clip0_75_40">
<rect width="158" height="39" fill="white"/>
</clipPath>
</defs>
</svg>
