<svg width="19" height="18" viewBox="0 0 19 18" fill="none" xmlns="http://www.w3.org/2000/svg">
<g clip-path="url(#clip0_562_545)">
<path d="M9.76368 0C7.98364 0 6.24359 0.527841 4.76354 1.51677C3.2835 2.50571 2.12995 3.91131 1.44876 5.55585C0.767571 7.20038 0.589341 9.00998 0.936608 10.7558C1.28388 12.5016 2.14104 14.1053 3.39971 15.364C4.65839 16.6226 6.26203 17.4798 8.00786 17.8271C9.75369 18.1743 11.5633 17.9961 13.2078 17.3149C14.8524 16.6337 16.258 15.4802 17.2469 14.0001C18.2358 12.5201 18.7637 10.78 18.7637 9C18.7611 6.61384 17.8121 4.32616 16.1248 2.63889C14.4375 0.951621 12.1498 0.00258081 9.76368 0V0ZM9.76368 16.5C8.28032 16.5 6.83027 16.0601 5.5969 15.236C4.36353 14.4119 3.40224 13.2406 2.83458 11.8701C2.26692 10.4997 2.1184 8.99168 2.40779 7.53682C2.69718 6.08197 3.41148 4.74559 4.46037 3.6967C5.50927 2.64781 6.84564 1.9335 8.3005 1.64411C9.75536 1.35472 11.2634 1.50325 12.6338 2.0709C14.0042 2.63856 15.1756 3.59985 15.9997 4.83322C16.8238 6.06659 17.2637 7.51664 17.2637 9C17.2615 10.9885 16.4706 12.8948 15.0646 14.3009C13.6585 15.7069 11.7521 16.4978 9.76368 16.5ZM13.5137 9C13.5137 9.19891 13.4347 9.38968 13.294 9.53033C13.1534 9.67098 12.9626 9.75 12.7637 9.75H10.5137V12C10.5137 12.1989 10.4347 12.3897 10.294 12.5303C10.1534 12.671 9.96259 12.75 9.76368 12.75C9.56476 12.75 9.374 12.671 9.23335 12.5303C9.09269 12.3897 9.01368 12.1989 9.01368 12V9.75H6.76368C6.56476 9.75 6.374 9.67098 6.23335 9.53033C6.09269 9.38968 6.01368 9.19891 6.01368 9C6.01368 8.80109 6.09269 8.61032 6.23335 8.46967C6.374 8.32902 6.56476 8.25 6.76368 8.25H9.01368V6C9.01368 5.80109 9.09269 5.61032 9.23335 5.46967C9.374 5.32902 9.56476 5.25 9.76368 5.25C9.96259 5.25 10.1534 5.32902 10.294 5.46967C10.4347 5.61032 10.5137 5.80109 10.5137 6V8.25H12.7637C12.9626 8.25 13.1534 8.32902 13.294 8.46967C13.4347 8.61032 13.5137 8.80109 13.5137 9Z" fill="white"/>
</g>
<defs>
<clipPath id="clip0_562_545">
<rect width="18" height="18" fill="white" transform="translate(0.763672)"/>
</clipPath>
</defs>
</svg>
