<svg width="15" height="8" viewBox="0 0 15 8" fill="none" xmlns="http://www.w3.org/2000/svg">
<path d="M1.90987 0.345642H13.0899C13.2876 0.346471 13.4807 0.405926 13.6447 0.516489C13.8087 0.627051 13.9362 0.783757 14.0111 0.966789C14.0861 1.14982 14.105 1.35096 14.0656 1.54477C14.0263 1.73859 13.9303 1.91637 13.7899 2.05564L8.20987 7.63563C8.11691 7.72936 8.00631 7.80375 7.88445 7.85452C7.76259 7.90529 7.63188 7.93143 7.49987 7.93143C7.36786 7.93143 7.23715 7.90529 7.11529 7.85452C6.99343 7.80375 6.88283 7.72936 6.78987 7.63563L1.20987 2.05564C1.06945 1.91637 0.973478 1.73859 0.934092 1.54477C0.894707 1.35096 0.913676 1.14982 0.988602 0.966789C1.06353 0.783757 1.19104 0.627051 1.35503 0.516489C1.51901 0.405926 1.7121 0.346471 1.90987 0.345642Z" fill="#374957"/>
</svg>
