<svg width="19" height="18" viewBox="0 0 19 18" fill="none" xmlns="http://www.w3.org/2000/svg">
<rect x="0.75" width="18" height="18" rx="9" fill="#EEB6B6"/>
<path d="M13.5639 5.18611C13.4447 5.06694 13.283 5 13.1145 5C12.9459 5 12.7843 5.06694 12.6651 5.18611L9.75 8.10119L6.83492 5.18611C6.71571 5.06694 6.55406 5 6.38551 5C6.21696 5 6.05531 5.06694 5.93611 5.18611C5.81694 5.30531 5.75 5.46696 5.75 5.63551C5.75 5.80406 5.81694 5.96571 5.93611 6.08492L8.85119 9L5.93611 11.9151C5.81694 12.0343 5.75 12.1959 5.75 12.3645C5.75 12.533 5.81694 12.6947 5.93611 12.8139C6.05531 12.9331 6.21696 13 6.38551 13C6.55406 13 6.71571 12.9331 6.83492 12.8139L9.75 9.89881L12.6651 12.8139C12.7843 12.9331 12.9459 13 13.1145 13C13.283 13 13.4447 12.9331 13.5639 12.8139C13.6831 12.6947 13.75 12.533 13.75 12.3645C13.75 12.1959 13.6831 12.0343 13.5639 11.9151L10.6488 9L13.5639 6.08492C13.6831 5.96571 13.75 5.80406 13.75 5.63551C13.75 5.46696 13.6831 5.30531 13.5639 5.18611Z" fill="white"/>
</svg>
