<svg width="25" height="25" viewBox="0 0 25 25" fill="none" xmlns="http://www.w3.org/2000/svg">
<g clip-path="url(#clip0_827_3612)">
<path d="M16.4076 8.97687C16.2201 8.7894 15.9658 8.68408 15.7007 8.68408C15.4355 8.68408 15.1812 8.7894 14.9937 8.97687L12.4077 11.5629L9.82166 8.97687C9.63306 8.79471 9.38046 8.69392 9.11826 8.69619C8.85607 8.69847 8.60525 8.80364 8.41985 8.98905C8.23444 9.17446 8.12927 9.42527 8.12699 9.68747C8.12471 9.94966 8.22551 10.2023 8.40766 10.3909L10.9937 12.9769L8.40766 15.5629C8.22551 15.7515 8.12471 16.0041 8.12699 16.2663C8.12927 16.5285 8.23444 16.7793 8.41985 16.9647C8.60525 17.1501 8.85607 17.2553 9.11826 17.2575C9.38046 17.2598 9.63306 17.159 9.82166 16.9769L12.4077 14.3909L14.9937 16.9769C15.1823 17.159 15.4349 17.2598 15.6971 17.2575C15.9592 17.2553 16.2101 17.1501 16.3955 16.9647C16.5809 16.7793 16.686 16.5285 16.6883 16.2663C16.6906 16.0041 16.5898 15.7515 16.4076 15.5629L13.8217 12.9769L16.4076 10.3909C16.5951 10.2033 16.7004 9.94903 16.7004 9.68387C16.7004 9.4187 16.5951 9.1644 16.4076 8.97687Z" fill="#374957"/>
<path d="M12.4082 0.976562C10.0348 0.976563 7.71476 1.68035 5.74137 2.99893C3.76798 4.3175 2.22991 6.19165 1.32165 8.38436C0.413403 10.5771 0.175763 12.9899 0.638785 15.3176C1.10181 17.6454 2.2447 19.7836 3.92293 21.4618C5.60116 23.1401 7.73935 24.283 10.0671 24.746C12.3949 25.209 14.8077 24.9714 17.0004 24.0631C19.1931 23.1549 21.0673 21.6168 22.3858 19.6434C23.7044 17.67 24.4082 15.3499 24.4082 12.9766C24.4048 9.79502 23.1394 6.74477 20.8897 4.49508C18.64 2.24539 15.5898 0.980004 12.4082 0.976563V0.976562ZM12.4082 22.9766C10.4304 22.9766 8.497 22.3901 6.85251 21.2913C5.20801 20.1924 3.92629 18.6307 3.16941 16.8034C2.41254 14.9761 2.2145 12.9655 2.60036 11.0257C2.98621 9.08585 3.93862 7.30402 5.33714 5.9055C6.73567 4.50697 8.5175 3.55456 10.4573 3.16871C12.3971 2.78286 14.4078 2.98089 16.235 3.73777C18.0623 4.49464 19.6241 5.77637 20.7229 7.42086C21.8217 9.06535 22.4082 10.9988 22.4082 12.9766C22.4053 15.6278 21.3508 18.1697 19.4761 20.0444C17.6013 21.9191 15.0595 22.9737 12.4082 22.9766Z" fill="#374957"/>
</g>
<defs>
<clipPath id="clip0_827_3612">
<rect width="24" height="24" fill="white" transform="translate(0.408203 0.976562)"/>
</clipPath>
</defs>
</svg>
