<svg width="23" height="23" viewBox="0 0 23 23" fill="none" xmlns="http://www.w3.org/2000/svg">
<path d="M0.809431 11.0658C0.750277 11.1678 0.719238 11.2826 0.719238 11.3992C0.719238 11.5159 0.750277 11.6307 0.809431 11.7327C1.94937 13.5594 3.47936 15.1355 5.29946 16.3582L2.36696 19.1632C2.23222 19.2921 2.15652 19.4669 2.15652 19.6492C2.15652 19.8315 2.23222 20.0064 2.36696 20.1353C2.50328 20.2614 2.68549 20.3319 2.87512 20.3319C3.06475 20.3319 3.24696 20.2614 3.38328 20.1353L6.57237 17.0849C8.08878 17.8603 9.78065 18.2686 11.5001 18.2742C18.3132 18.2742 22.0356 12.0001 22.1908 11.7327C22.2448 11.6397 22.2755 11.5359 22.2805 11.4296C22.2855 11.3233 22.2646 11.2174 22.2196 11.1201C21.2164 9.18118 19.7017 7.52617 17.8251 6.31861L20.6282 3.63736C20.6969 3.57394 20.7516 3.49808 20.7893 3.4142C20.827 3.33033 20.8468 3.24011 20.8476 3.14883C20.8485 3.05754 20.8303 2.96701 20.7941 2.88252C20.758 2.79803 20.7046 2.72127 20.6372 2.65672C20.5697 2.59217 20.4894 2.54112 20.4011 2.50655C20.3128 2.47198 20.2181 2.45459 20.1227 2.45538C20.0272 2.45617 19.9329 2.47514 19.8452 2.51117C19.7575 2.5472 19.6782 2.59958 19.6119 2.66524L16.5364 5.6098C14.9669 4.88324 13.2437 4.51181 11.5001 4.52424C4.68709 4.52424 0.964681 10.7984 0.809431 11.0658ZM20.7425 11.3649C19.944 12.5584 16.6816 16.8992 11.5001 16.8992C10.1682 16.8932 8.85451 16.6029 7.65481 16.0495L9.00534 14.7577C9.83464 15.3244 10.8472 15.5913 11.863 15.5109C12.8787 15.4306 13.8317 15.0081 14.5524 14.3188C15.273 13.6294 15.7147 12.7179 15.7987 11.7463C15.8827 10.7747 15.6037 9.80617 15.0112 9.01293L16.793 7.30861C18.4505 8.31541 19.8103 9.71198 20.7425 11.3649ZM8.62512 11.3992C8.62512 10.6699 8.92802 9.97042 9.46719 9.45469C10.0064 8.93897 10.7376 8.64924 11.5001 8.64924C12.0117 8.65163 12.5132 8.78632 12.9513 9.03905L9.03265 12.7873C8.76844 12.3682 8.62762 11.8886 8.62512 11.3992ZM14.3751 11.3992C14.3751 12.1286 14.0722 12.8281 13.5331 13.3438C12.9939 13.8595 12.2626 14.1492 11.5001 14.1492C10.9885 14.1468 10.4871 14.0122 10.049 13.7594L13.9676 10.0112C14.2318 10.4302 14.3726 10.9099 14.3751 11.3992ZM11.5001 5.89924C12.8559 5.8914 14.1993 6.14681 15.4489 6.64999L13.9949 8.0408C13.1656 7.47409 12.153 7.20718 11.1373 7.28754C10.1215 7.36791 9.16855 7.79035 8.44787 8.4797C7.72719 9.16904 7.28555 10.0806 7.20153 11.0522C7.11751 12.0237 7.39656 12.9923 7.98903 13.7856L6.34956 15.3537C4.73256 14.3067 3.34944 12.9624 2.28071 11.3992C3.11806 10.1576 6.36753 5.89924 11.5001 5.89924Z" fill="black"/>
</svg>
