<svg width="22" height="22" viewBox="0 0 22 22" fill="none" xmlns="http://www.w3.org/2000/svg">
<g clip-path="url(#clip0_1242_4621)">
<path d="M21.3319 8.63396C19.9102 6.31846 16.6762 2.43362 11.0002 2.43362C5.32417 2.43362 2.09017 6.31846 0.668419 8.63396C0.228903 9.34484 -0.00390625 10.1641 -0.00390625 10.9999C-0.00390625 11.8357 0.228903 12.6549 0.668419 13.3658C2.09017 15.6813 5.32417 19.5661 11.0002 19.5661C16.6762 19.5661 19.9102 15.6813 21.3319 13.3658C21.7714 12.6549 22.0042 11.8357 22.0042 10.9999C22.0042 10.1641 21.7714 9.34484 21.3319 8.63396ZM19.769 12.406C18.548 14.3915 15.7843 17.7328 11.0002 17.7328C6.21609 17.7328 3.45234 14.3915 2.23134 12.406C1.97021 11.9835 1.8319 11.4966 1.8319 10.9999C1.8319 10.5032 1.97021 10.0163 2.23134 9.59371C3.45234 7.60821 6.21609 4.26696 11.0002 4.26696C15.7843 4.26696 18.548 7.60454 19.769 9.59371C20.0301 10.0163 20.1684 10.5032 20.1684 10.9999C20.1684 11.4966 20.0301 11.9835 19.769 12.406Z" fill="#374957"/>
<path d="M11.0013 6.41652C10.0948 6.41652 9.20867 6.68533 8.45494 7.18895C7.70122 7.69257 7.11376 8.40839 6.76686 9.24589C6.41995 10.0834 6.32919 11.0049 6.50604 11.894C6.68289 12.7831 7.11941 13.5998 7.7604 14.2408C8.40139 14.8818 9.21806 15.3183 10.1071 15.4951C10.9962 15.672 11.9178 15.5812 12.7553 15.2343C13.5928 14.8874 14.3086 14.2999 14.8122 13.5462C15.3158 12.7925 15.5846 11.9064 15.5846 10.9999C15.5832 9.78472 15.0998 8.61978 14.2406 7.76055C13.3814 6.90133 12.2164 6.41797 11.0013 6.41652ZM11.0013 13.7499C10.4574 13.7499 9.92572 13.5886 9.47349 13.2864C9.02125 12.9842 8.66878 12.5547 8.46063 12.0522C8.25249 11.5497 8.19803 10.9968 8.30414 10.4634C8.41025 9.92991 8.67217 9.4399 9.05676 9.05531C9.44135 8.67071 9.93136 8.4088 10.4648 8.30269C10.9983 8.19658 11.5512 8.25104 12.0537 8.45918C12.5562 8.66732 12.9857 9.0198 13.2878 9.47203C13.59 9.92427 13.7513 10.456 13.7513 10.9999C13.7513 11.7292 13.4616 12.4287 12.9458 12.9444C12.4301 13.4601 11.7306 13.7499 11.0013 13.7499Z" fill="#374957"/>
</g>
<defs>
<clipPath id="clip0_1242_4621">
<rect width="22" height="22" fill="white"/>
</clipPath>
</defs>
</svg>
