<svg width="25" height="24" viewBox="0 0 25 24" fill="none" xmlns="http://www.w3.org/2000/svg">
<g clip-path="url(#clip0_827_3012)">
<path d="M12.2051 9.99988C11.414 9.99988 10.6406 10.2345 9.9828 10.674C9.325 11.1135 8.81231 11.7382 8.50956 12.4691C8.20681 13.2 8.1276 14.0043 8.28194 14.7802C8.43628 15.5562 8.81724 16.2689 9.37665 16.8283C9.93606 17.3877 10.6488 17.7687 11.4247 17.923C12.2006 18.0774 13.0049 17.9981 13.7358 17.6954C14.4667 17.3926 15.0914 16.88 15.531 16.2222C15.9705 15.5644 16.2051 14.791 16.2051 13.9999C16.2051 12.939 15.7837 11.9216 15.0335 11.1715C14.2834 10.4213 13.2659 9.99988 12.2051 9.99988ZM12.2051 15.9999C11.8095 15.9999 11.4228 15.8826 11.0939 15.6628C10.765 15.4431 10.5087 15.1307 10.3573 14.7652C10.2059 14.3998 10.1663 13.9977 10.2435 13.6097C10.3207 13.2217 10.5112 12.8654 10.7909 12.5857C11.0706 12.306 11.4269 12.1155 11.8149 12.0383C12.2029 11.9611 12.605 12.0007 12.9704 12.1521C13.3359 12.3035 13.6483 12.5598 13.868 12.8887C14.0878 13.2176 14.2051 13.6043 14.2051 13.9999C14.2051 14.5303 13.9944 15.039 13.6193 15.4141C13.2442 15.7892 12.7355 15.9999 12.2051 15.9999Z" fill="#374957"/>
<path d="M22.7411 4.12202L20.0831 1.46402C19.6199 0.998362 19.069 0.629199 18.4622 0.377902C17.8554 0.126605 17.2048 -0.00183456 16.5481 1.97963e-05H5.20508C3.87948 0.00160765 2.60864 0.528902 1.6713 1.46624C0.73396 2.40358 0.206666 3.67443 0.205078 5.00002L0.205078 19C0.206666 20.3256 0.73396 21.5965 1.6713 22.5338C2.60864 23.4711 3.87948 23.9984 5.20508 24H19.2051C20.5307 23.9984 21.8015 23.4711 22.7389 22.5338C23.6762 21.5965 24.2035 20.3256 24.2051 19V7.65702C24.2069 7.00026 24.0785 6.34965 23.8272 5.74286C23.5759 5.13608 23.2067 4.58517 22.7411 4.12202ZM17.2051 2.08002V3.00002C17.2051 3.79567 16.889 4.55873 16.3264 5.12134C15.7638 5.68395 15.0007 6.00002 14.2051 6.00002H10.2051C9.40943 6.00002 8.64637 5.68395 8.08376 5.12134C7.52115 4.55873 7.20508 3.79567 7.20508 3.00002V2.00002H16.5481C16.7694 2.00198 16.9898 2.02882 17.2051 2.08002ZM22.2051 19C22.2051 19.7957 21.889 20.5587 21.3264 21.1213C20.7638 21.6839 20.0007 22 19.2051 22H5.20508C4.40943 22 3.64637 21.6839 3.08376 21.1213C2.52115 20.5587 2.20508 19.7957 2.20508 19V5.00002C2.20508 4.20437 2.52115 3.44131 3.08376 2.8787C3.64637 2.31609 4.40943 2.00002 5.20508 2.00002V3.00002C5.20667 4.32561 5.73396 5.59646 6.6713 6.5338C7.60864 7.47114 8.87948 7.99843 10.2051 8.00002H14.2051C15.4626 7.99612 16.6722 7.51768 17.5922 6.66038C18.5122 5.80308 19.0746 4.63011 19.1671 3.37602L21.3271 5.53602C21.8875 6.09989 22.203 6.86201 22.2051 7.65702V19Z" fill="#374957"/>
</g>
<defs>
<clipPath id="clip0_827_3012">
<rect width="24" height="24" fill="white" transform="translate(0.205078)"/>
</clipPath>
</defs>
</svg>
