<svg width="17" height="17" viewBox="0 0 17 17" fill="none" xmlns="http://www.w3.org/2000/svg">
<g clip-path="url(#clip0_1141_4876)">
<path d="M13.8944 4.1006L11.5704 1.7766C11.1381 1.34198 10.6239 0.997411 10.0576 0.762824C9.49128 0.528237 8.88406 0.408292 8.27107 0.409929H5.26107C4.37734 0.410987 3.53011 0.762517 2.90521 1.38741C2.28032 2.0123 1.92879 2.85953 1.92773 3.74326V13.0766C1.92879 13.9603 2.28032 14.8076 2.90521 15.4324C3.53011 16.0573 4.37734 16.4089 5.26107 16.4099H11.9277C12.8115 16.4089 13.6587 16.0573 14.2836 15.4324C14.9085 14.8076 15.26 13.9603 15.2611 13.0766V7.39993C15.2627 6.78694 15.1428 6.17971 14.9082 5.61339C14.6736 5.04706 14.329 4.53288 13.8944 4.1006ZM12.9517 5.04326C13.1551 5.25287 13.3301 5.4882 13.4724 5.74326H10.5944C10.4176 5.74326 10.248 5.67302 10.123 5.548C9.99797 5.42298 9.92773 5.25341 9.92773 5.0766V2.1986C10.1828 2.34085 10.4181 2.5159 10.6277 2.71926L12.9517 5.04326ZM13.9277 13.0766C13.9277 13.607 13.717 14.1157 13.3419 14.4908C12.9669 14.8659 12.4582 15.0766 11.9277 15.0766H5.26107C4.73063 15.0766 4.22193 14.8659 3.84685 14.4908C3.47178 14.1157 3.26107 13.607 3.26107 13.0766V3.74326C3.26107 3.21283 3.47178 2.70412 3.84685 2.32905C4.22193 1.95398 4.73063 1.74326 5.26107 1.74326H8.27107C8.38107 1.74326 8.4864 1.7646 8.5944 1.7746V5.0766C8.5944 5.60703 8.80511 6.11574 9.18019 6.49081C9.55526 6.86588 10.064 7.0766 10.5944 7.0766H13.8964C13.9064 7.1846 13.9277 7.28993 13.9277 7.39993V13.0766ZM11.7437 9.28393C11.8655 9.41199 11.9314 9.58313 11.927 9.75976C11.9226 9.93639 11.8483 10.1041 11.7204 10.2259L9.32773 12.5019C8.95163 12.8721 8.44445 13.0787 7.91673 13.0765C7.38901 13.0744 6.88352 12.8638 6.5104 12.4906L5.48373 11.5746C5.35166 11.4568 5.27177 11.2914 5.26164 11.1148C5.25663 11.0273 5.26889 10.9397 5.29773 10.857C5.32657 10.7742 5.37143 10.698 5.42973 10.6326C5.48804 10.5672 5.55866 10.5139 5.63755 10.4758C5.71645 10.4377 5.80208 10.4155 5.88955 10.4105C6.06621 10.4004 6.23966 10.4608 6.37173 10.5786L7.4284 11.5213C7.48889 11.5892 7.56264 11.644 7.64512 11.6824C7.72759 11.7208 7.81705 11.7418 7.90797 11.7443C7.9989 11.7468 8.08937 11.7307 8.17383 11.6969C8.25829 11.6631 8.33494 11.6124 8.39907 11.5479L10.7991 9.2606C10.8625 9.19992 10.9374 9.15237 11.0192 9.12069C11.1011 9.08901 11.1885 9.07382 11.2762 9.07598C11.364 9.07815 11.4505 9.09764 11.5307 9.13332C11.611 9.16901 11.6833 9.22019 11.7437 9.28393Z" fill="#3E4244"/>
</g>
<defs>
<clipPath id="clip0_1141_4876">
<rect width="16" height="16" fill="white" transform="translate(0.59375 0.409668)"/>
</clipPath>
</defs>
</svg>
