<svg width="25" height="25" viewBox="0 0 25 25" fill="none" xmlns="http://www.w3.org/2000/svg">
<g clip-path="url(#clip0_827_2445)">
<path d="M14.6949 17.5759L11.4329 20.8379C10.4858 21.7597 9.21389 22.2715 7.89232 22.2627C6.57076 22.2538 5.30582 21.725 4.37118 20.7906C3.43655 19.8562 2.90737 18.5914 2.89814 17.2699C2.88891 15.9483 3.40038 14.6763 4.32187 13.7289L7.58388 10.4639C7.77138 10.2763 7.87667 10.0219 7.87658 9.75659C7.87648 9.49132 7.77102 9.23695 7.58337 9.04945C7.39573 8.86194 7.14129 8.75665 6.87602 8.75674C6.61075 8.75684 6.35638 8.86231 6.16887 9.04995L2.90787 12.3149C1.59015 13.6333 0.850117 15.4212 0.850586 17.2852C0.851055 19.1492 1.59198 20.9367 2.91037 22.2544C4.22877 23.5721 6.01662 24.3122 7.88064 24.3117C9.74466 24.3112 11.5321 23.5703 12.8499 22.2519L16.1119 18.9899C16.294 18.8013 16.3948 18.5487 16.3925 18.2865C16.3903 18.0243 16.2851 17.7735 16.0997 17.5881C15.9143 17.4027 15.6635 17.2975 15.4013 17.2953C15.1391 17.293 14.8865 17.3938 14.6979 17.5759H14.6949Z" fill="#374957"/>
<path d="M22.7941 2.37041C22.1434 1.71523 21.3691 1.19569 20.5161 0.841909C19.6632 0.488126 18.7485 0.307132 17.8251 0.309413C16.9021 0.306961 15.9879 0.487491 15.1352 0.840564C14.2824 1.19364 13.5081 1.71225 12.8571 2.36641L9.59008 5.62941C9.40244 5.81692 9.29697 6.07129 9.29688 6.33656C9.29678 6.60183 9.40207 6.85627 9.58958 7.04391C9.77709 7.23155 10.0315 7.33702 10.2967 7.33712C10.562 7.33721 10.8164 7.23192 11.0041 7.04441L14.2691 3.78241C14.7346 3.31406 15.2885 2.94271 15.8985 2.68987C16.5086 2.43703 17.1627 2.30771 17.8231 2.30941C18.8173 2.30974 19.7892 2.60484 20.6158 3.15741C21.4423 3.70998 22.0865 4.49521 22.4669 5.41383C22.8473 6.33246 22.9468 7.34323 22.7528 8.31839C22.5588 9.29355 22.0801 10.1893 21.3771 10.8924L18.1151 14.1544C17.9274 14.3421 17.822 14.5966 17.822 14.8619C17.822 15.1273 17.9274 15.3818 18.1151 15.5694C18.3027 15.7571 18.5572 15.8625 18.8226 15.8625C19.0879 15.8625 19.3424 15.7571 19.5301 15.5694L22.7921 12.3094C24.1081 10.9905 24.8474 9.20352 24.8478 7.34033C24.8481 5.47714 24.1096 3.68985 22.7941 2.37041Z" fill="#374957"/>
<path d="M15.1432 8.60209L9.14318 14.6021C9.04767 14.6943 8.97149 14.8047 8.91908 14.9267C8.86667 15.0487 8.83908 15.1799 8.83793 15.3127C8.83677 15.4455 8.86208 15.5771 8.91236 15.7C8.96264 15.8229 9.03689 15.9346 9.13078 16.0285C9.22468 16.1224 9.33633 16.1966 9.45922 16.2469C9.58212 16.2972 9.7138 16.3225 9.84658 16.3213C9.97936 16.3202 10.1106 16.2926 10.2326 16.2402C10.3546 16.1878 10.4649 16.1116 10.5572 16.0161L16.5572 10.0161C16.7393 9.82749 16.8401 9.57489 16.8379 9.31269C16.8356 9.05049 16.7304 8.79968 16.545 8.61427C16.3596 8.42887 16.1088 8.3237 15.8466 8.32142C15.5844 8.31914 15.3318 8.41993 15.1432 8.60209Z" fill="#374957"/>
</g>
<defs>
<clipPath id="clip0_827_2445">
<rect width="24" height="24" fill="white" transform="translate(0.849609 0.30899)"/>
</clipPath>
</defs>
</svg>
