<svg width="19" height="20" viewBox="0 0 19 20" fill="none" xmlns="http://www.w3.org/2000/svg">
<g clip-path="url(#clip0_1462_4236)">
<path d="M13.4102 0.5C13.2112 0.5 13.0205 0.583408 12.8798 0.731874C12.7392 0.88034 12.6602 1.0817 12.6602 1.29167C12.6602 3.62629 10.7229 4.45833 8.91016 4.45833H3.66016C2.86451 4.45833 2.10145 4.79196 1.53884 5.38583C0.976227 5.97969 0.660156 6.78515 0.660156 7.625L0.660156 9.20833C0.661794 9.68233 0.764753 10.1498 0.961358 10.576C1.15796 11.0022 1.44315 11.376 1.79566 11.6696L4.47466 17.9808C4.66518 18.4329 4.97579 18.817 5.36886 19.0867C5.76193 19.3563 6.22063 19.4999 6.68941 19.5C7.06239 19.4997 7.42939 19.401 7.75701 19.2128C8.08462 19.0247 8.36245 18.753 8.56519 18.4225C8.76794 18.0921 8.88917 17.7133 8.91785 17.3208C8.94653 16.9282 8.88175 16.5344 8.72941 16.175L7.07941 12.375H8.91016C10.7229 12.375 12.6602 13.207 12.6602 15.5417C12.6602 15.7516 12.7392 15.953 12.8798 16.1015C13.0205 16.2499 13.2112 16.3333 13.4102 16.3333C13.6091 16.3333 13.7998 16.2499 13.9405 16.1015C14.0811 15.953 14.1602 15.7516 14.1602 15.5417V1.29167C14.1602 1.0817 14.0811 0.88034 13.9405 0.731874C13.7998 0.583408 13.6091 0.5 13.4102 0.5V0.5ZM7.36291 16.8234C7.41258 16.9418 7.43348 17.0714 7.42369 17.2005C7.4139 17.3296 7.37375 17.4541 7.30686 17.5627C7.23997 17.6713 7.14847 17.7605 7.04065 17.8223C6.93283 17.8841 6.8121 17.9166 6.68941 17.9167C6.51045 17.9165 6.33539 17.8616 6.18547 17.7584C6.03556 17.6552 5.91724 17.5084 5.84491 17.3356L3.73891 12.375H5.42941L7.36291 16.8234ZM12.6602 12.0583C11.5886 11.1869 10.2619 10.7387 8.91016 10.7917H3.66016C3.26233 10.7917 2.8808 10.6249 2.5995 10.3279C2.31819 10.031 2.16016 9.62826 2.16016 9.20833V7.625C2.16016 7.20507 2.31819 6.80235 2.5995 6.50541C2.8808 6.20848 3.26233 6.04167 3.66016 6.04167H8.91016C10.2615 6.09573 11.5881 5.64902 12.6602 4.77896V12.0583ZM18.5852 12.7328C18.5412 12.8259 18.4802 12.9089 18.4058 12.9771C18.3314 13.0453 18.245 13.0974 18.1515 13.1303C18.0581 13.1633 17.9594 13.1764 17.8611 13.1691C17.7628 13.1617 17.6668 13.134 17.5787 13.0875L16.0787 12.2958C15.9006 12.202 15.7652 12.0373 15.7022 11.8381C15.6392 11.6388 15.6537 11.4213 15.7427 11.2334C15.8316 11.0455 15.9876 10.9026 16.1763 10.8361C16.3651 10.7695 16.5711 10.7849 16.7492 10.8787L18.2492 11.6704C18.4263 11.7642 18.561 11.9282 18.624 12.1265C18.6869 12.3248 18.673 12.5414 18.5852 12.7289V12.7328ZM15.7427 5.60783C15.6986 5.51479 15.6723 5.4135 15.6654 5.30974C15.6584 5.20598 15.6709 5.10179 15.7021 5.00313C15.7333 4.90446 15.7826 4.81325 15.8472 4.73472C15.9118 4.65618 15.9905 4.59186 16.0787 4.54542L17.5787 3.75375C17.7567 3.6599 17.9627 3.64454 18.1515 3.71105C18.3403 3.77756 18.4962 3.9205 18.5852 4.10842C18.6741 4.29633 18.6886 4.51384 18.6256 4.71308C18.5626 4.91232 18.4272 5.07698 18.2492 5.17083L16.7492 5.9625C16.661 6.00902 16.5651 6.03674 16.4668 6.04409C16.3685 6.05144 16.2698 6.03827 16.1763 6.00533C16.0828 5.97239 15.9964 5.92033 15.922 5.85213C15.8476 5.78392 15.7867 5.70091 15.7427 5.60783ZM15.6602 8.41667C15.6602 8.2067 15.7392 8.00534 15.8798 7.85687C16.0205 7.70841 16.2112 7.625 16.4102 7.625H17.9102C18.1091 7.625 18.2998 7.70841 18.4405 7.85687C18.5811 8.00534 18.6602 8.2067 18.6602 8.41667C18.6602 8.62663 18.5811 8.82799 18.4405 8.97646C18.2998 9.12493 18.1091 9.20833 17.9102 9.20833H16.4102C16.2112 9.20833 16.0205 9.12493 15.8798 8.97646C15.7392 8.82799 15.6602 8.62663 15.6602 8.41667Z" fill="black"/>
</g>
<defs>
<clipPath id="clip0_1462_4236">
<rect width="18" height="19" fill="white" transform="translate(0.660156 0.5)"/>
</clipPath>
</defs>
</svg>
