<svg width="25" height="25" viewBox="0 0 25 25" fill="none" xmlns="http://www.w3.org/2000/svg">
<g clip-path="url(#clip0_827_2439)">
<path d="M19.0779 1.25167L6.8859 13.4437C6.42024 13.9068 6.05107 14.4577 5.79978 15.0645C5.54848 15.6713 5.42004 16.3219 5.42189 16.9787V18.3217C5.42189 18.5869 5.52725 18.8412 5.71479 19.0288C5.90232 19.2163 6.15668 19.3217 6.42189 19.3217H7.76489C8.42166 19.3235 9.07226 19.1951 9.67905 18.9438C10.2858 18.6925 10.8368 18.3233 11.2999 17.8577L23.4919 5.66567C24.0763 5.07984 24.4045 4.28615 24.4045 3.45867C24.4045 2.6312 24.0763 1.8375 23.4919 1.25167C22.8976 0.683567 22.1071 0.366523 21.2849 0.366523C20.4627 0.366523 19.6722 0.683567 19.0779 1.25167ZM22.0779 4.25167L9.88589 16.4437C9.32202 17.0041 8.5599 17.3196 7.76489 17.3217H7.42189V16.9787C7.42398 16.1837 7.73946 15.4215 8.29989 14.8577L20.4919 2.66567C20.7055 2.46163 20.9895 2.34777 21.2849 2.34777C21.5803 2.34777 21.8643 2.46163 22.0779 2.66567C22.2878 2.87619 22.4057 3.16136 22.4057 3.45867C22.4057 3.75598 22.2878 4.04116 22.0779 4.25167Z" fill="#374957"/>
<path d="M23.4219 9.30044C23.1567 9.30044 22.9023 9.4058 22.7148 9.59334C22.5272 9.78087 22.4219 10.0352 22.4219 10.3004V15.3214H18.4219C17.6262 15.3214 16.8632 15.6375 16.3006 16.2001C15.7379 16.7627 15.4219 17.5258 15.4219 18.3214V22.3214H5.42188C4.62623 22.3214 3.86316 22.0054 3.30055 21.4428C2.73795 20.8802 2.42188 20.1171 2.42188 19.3214V5.32144C2.42188 4.52579 2.73795 3.76273 3.30055 3.20012C3.86316 2.63751 4.62623 2.32144 5.42188 2.32144H14.4639C14.7291 2.32144 14.9834 2.21609 15.171 2.02855C15.3585 1.84101 15.4639 1.58666 15.4639 1.32144C15.4639 1.05623 15.3585 0.801871 15.171 0.614335C14.9834 0.426799 14.7291 0.321442 14.4639 0.321442L5.42188 0.321442C4.09628 0.32303 2.82543 0.850324 1.8881 1.78766C0.950757 2.725 0.423463 3.99585 0.421875 5.32144L0.421875 19.3214C0.423463 20.647 0.950757 21.9179 1.8881 22.8552C2.82543 23.7926 4.09628 24.3199 5.42188 24.3214H16.7649C17.4218 24.3233 18.0726 24.1949 18.6795 23.9436C19.2865 23.6923 19.8375 23.3231 20.3009 22.8574L22.9569 20.1994C23.4226 19.7363 23.7919 19.1854 24.0434 18.5787C24.2948 17.9719 24.4235 17.3213 24.4219 16.6644V10.3004C24.4219 10.0352 24.3165 9.78087 24.129 9.59334C23.9414 9.4058 23.6871 9.30044 23.4219 9.30044ZM18.8869 21.4434C18.4849 21.8444 17.9765 22.122 17.4219 22.2434V18.3214C17.4219 18.0562 17.5272 17.8019 17.7148 17.6143C17.9023 17.4268 18.1567 17.3214 18.4219 17.3214H22.3469C22.2232 17.875 21.9459 18.3824 21.5469 18.7854L18.8869 21.4434Z" fill="#374957"/>
</g>
<defs>
<clipPath id="clip0_827_2439">
<rect width="24" height="24" fill="white" transform="translate(0.421875 0.321442)"/>
</clipPath>
</defs>
</svg>
