<svg width="24" height="24" viewBox="0 0 24 24" fill="none" xmlns="http://www.w3.org/2000/svg">
<path d="M22.853 1.148C22.1732 0.469196 21.2517 0.0879364 20.291 0.0879364C19.3303 0.0879364 18.4089 0.469196 17.729 1.148L1.46502 17.412C0.999266 17.8751 0.629977 18.426 0.378513 19.0328C0.127049 19.6396 -0.00159798 20.2902 1.49812e-05 20.947V23C1.49812e-05 23.2652 0.105372 23.5196 0.292908 23.7071C0.480445 23.8946 0.734799 24 1.00002 24H3.05301C3.70978 24.0019 4.36038 23.8734 4.96717 23.6221C5.57396 23.3708 6.12487 23.0017 6.58801 22.536L22.853 6.271C23.5315 5.59119 23.9126 4.66997 23.9126 3.7095C23.9126 2.74903 23.5315 1.8278 22.853 1.148ZM5.17401 21.122C4.61002 21.6822 3.84798 21.9977 3.05301 22H2.00002V20.947C1.999 20.5529 2.07617 20.1625 2.22705 19.7985C2.37793 19.4344 2.59953 19.1039 2.87901 18.826L15.222 6.483L17.522 8.783L5.17401 21.122ZM21.438 4.857L18.932 7.364L16.632 5.069L19.139 2.562C19.29 2.41131 19.4693 2.29184 19.6664 2.21041C19.8636 2.12898 20.0749 2.08719 20.2883 2.08742C20.5016 2.08765 20.7128 2.1299 20.9098 2.21176C21.1069 2.29362 21.2858 2.41348 21.4365 2.5645C21.5872 2.71552 21.7067 2.89474 21.7881 3.09193C21.8695 3.28913 21.9113 3.50042 21.9111 3.71377C21.9109 3.92711 21.8686 4.13832 21.7868 4.33533C21.7049 4.53235 21.585 4.71131 21.434 4.862L21.438 4.857Z" fill="#374957"/>
</svg>
