<svg width="24" height="25" viewBox="0 0 24 25" fill="none" xmlns="http://www.w3.org/2000/svg">
<path d="M10.2835 19.709H8.83984V21.2444H10.2835V19.709Z" fill="#374957"/>
<path d="M18.9701 0H16.3104H7.68973H5.02994C2.2564 0 0 2.2564 0 5.02994V19.0842C0 21.8578 2.2564 24.1142 5.02994 24.1142H8.61187H15.5794H18.9701C21.7435 24.1142 24 21.8578 24 19.0842V5.02994C24.0001 2.2564 21.7436 0 18.9701 0ZM16.3104 1.84256C17.192 1.84256 17.9091 2.42861 17.9091 3.14893V10.7071C17.9091 11.4275 17.1919 12.0135 16.3104 12.0135H7.68973C6.80813 12.0135 6.09095 11.4275 6.09095 10.7071V3.14893C6.09095 2.42861 6.80819 1.84256 7.68973 1.84256H16.3104ZM8.61193 22.2716C8.22751 22.2716 7.91471 21.9589 7.91471 21.5745V19.7278C7.91471 19.3434 8.22751 19.0307 8.61193 19.0307H15.5794C15.9639 19.0307 16.2766 19.3434 16.2766 19.7278V21.5745C16.2766 21.9589 15.9639 22.2716 15.5794 22.2716H8.61193ZM22.1575 19.0842C22.1575 20.8418 20.7277 22.2716 18.9701 22.2716H18.0211C18.0845 22.0499 18.1192 21.8163 18.1192 21.5745V19.7278C18.1192 18.3274 16.9799 17.1881 15.5794 17.1881H8.61193C7.21147 17.1881 6.07215 18.3274 6.07215 19.7278V21.5745C6.07215 21.8163 6.10685 22.05 6.17024 22.2716H5.02994C3.27238 22.2716 1.84256 20.8418 1.84256 19.0842V5.02994C1.84256 3.43858 3.01486 2.11599 4.54117 1.88009C4.35347 2.2685 4.24839 2.69757 4.24839 3.14893V10.7071C4.24839 12.4435 5.7922 13.8561 7.68973 13.8561H16.3104C18.208 13.8561 19.7517 12.4435 19.7517 10.7071V3.14893C19.7517 2.69763 19.6466 2.26856 19.4589 1.88009C20.9852 2.11599 22.1575 3.43858 22.1575 5.02994V19.0842Z" fill="#374957"/>
</svg>
