<svg width="23" height="23" viewBox="0 0 23 23" fill="none" xmlns="http://www.w3.org/2000/svg">
<path d="M22.0431 20.1932L17.8541 16.0042C19.1237 14.3422 19.82 12.3264 19.8202 10.1992C19.8202 7.63571 18.8219 5.2255 17.0089 3.41288C15.1963 1.60026 12.7864 0.601868 10.2226 0.601868C7.65915 0.601868 5.24895 1.60026 3.43633 3.41288C-0.305598 7.15512 -0.305598 13.2439 3.43633 16.9855C5.24895 18.7984 7.65915 19.7968 10.2226 19.7968C12.3498 19.7965 14.3657 19.1002 16.0276 17.8307L20.2166 22.0197C20.4686 22.272 20.7994 22.3981 21.1299 22.3981C21.4604 22.3981 21.7912 22.272 22.0431 22.0197C22.5477 21.5155 22.5477 20.6974 22.0431 20.1932ZM5.26282 15.159C2.52812 12.4243 2.52844 7.9744 5.26282 5.23938C6.5876 3.91492 8.34914 3.1852 10.2226 3.1852C12.0964 3.1852 13.8576 3.91492 15.1824 5.23938C16.5072 6.56416 17.2369 8.32569 17.2369 10.1992C17.2369 12.073 16.5072 13.8342 15.1824 15.159C13.8576 16.4838 12.0964 17.2135 10.2226 17.2135C8.34914 17.2135 6.5876 16.4838 5.26282 15.159Z" fill="black"/>
</svg>
