<svg width="22" height="22" viewBox="0 0 22 22" fill="none" xmlns="http://www.w3.org/2000/svg">
<path d="M16.8658 6.76357C16.7 6.71628 16.5487 6.62827 16.4256 6.50755C16.3025 6.38684 16.2115 6.23725 16.1609 6.07241C15.8802 5.12095 15.4094 4.23633 14.7769 3.47209C14.1445 2.70785 13.3635 2.07988 12.4813 1.62617C11.5992 1.17246 10.6341 0.902449 9.64459 0.832476C8.65506 0.762503 7.66162 0.894022 6.72438 1.21908C5.78714 1.54413 4.9256 2.05596 4.19188 2.72359C3.45817 3.39122 2.86753 4.20078 2.45572 5.10327C2.04392 6.00575 1.81949 6.98241 1.79604 7.97414C1.77258 8.96587 1.95058 9.95204 2.31926 10.873C2.40395 11.0668 2.42219 11.2832 2.37112 11.4884C2.32006 11.6937 2.20256 11.8763 2.03692 12.0078C1.30701 12.5496 0.73713 13.2786 0.387611 14.1177C0.0380909 14.9568 -0.07807 15.8748 0.0514222 16.7745C0.253504 17.9908 0.884969 19.0943 1.83121 19.8848C2.77744 20.6753 3.97573 21.1004 5.20859 21.0828H10.0825C10.3256 21.0828 10.5588 20.9862 10.7307 20.8143C10.9026 20.6424 10.9992 20.4093 10.9992 20.1662C10.9992 19.923 10.9026 19.6899 10.7307 19.518C10.5588 19.3461 10.3256 19.2495 10.0825 19.2495H5.20859C4.41685 19.2687 3.64441 19.0036 3.03129 18.5023C2.41816 18.001 2.00491 17.2967 1.86642 16.5169C1.7786 15.9437 1.84978 15.3575 2.07219 14.822C2.2946 14.2865 2.65972 13.8223 3.12776 13.48C3.61938 13.1126 3.97502 12.5922 4.13878 12.0007C4.30255 11.4092 4.26516 10.78 4.03251 10.2121C3.57248 8.99722 3.54882 7.66027 3.96559 6.42991C4.29852 5.4661 4.89471 4.6148 5.68662 3.97242C6.47853 3.33005 7.4345 2.92229 8.44626 2.79532C8.68094 2.76511 8.9173 2.7498 9.15392 2.74949C10.3392 2.74558 11.4939 3.12572 12.4451 3.83298C13.3962 4.54025 14.0927 5.53659 14.4303 6.67282C14.562 7.10583 14.7994 7.49926 15.121 7.8177C15.4427 8.13614 15.8385 8.36957 16.2728 8.49699C17.3356 8.81134 18.2771 9.44287 18.9711 10.3071C19.6652 11.1712 20.0787 12.2268 20.1562 13.3325C20.2338 14.4381 19.9718 15.5411 19.4052 16.4937C18.8386 17.4464 17.9945 18.2032 16.9859 18.6628C16.8367 18.7392 16.7119 18.8561 16.6258 19C16.5397 19.1439 16.4959 19.3092 16.4992 19.4768V19.4768C16.4974 19.6285 16.5337 19.7782 16.6049 19.9122C16.676 20.0462 16.7797 20.1601 16.9063 20.2436C17.033 20.3271 17.1786 20.3775 17.3297 20.39C17.4809 20.4026 17.6328 20.377 17.7715 20.3156C21.561 18.4942 23.6198 13.7027 20.4115 9.07357C19.5281 7.92125 18.2769 7.10606 16.8658 6.76357V6.76357Z" fill="#374957"/>
<path d="M17.1472 15.3144C17.3191 15.1425 17.4156 14.9094 17.4156 14.6664C17.4156 14.4233 17.3191 14.1902 17.1472 14.0183L15.6934 12.5644C15.1777 12.0489 14.4784 11.7593 13.7492 11.7593C13.02 11.7593 12.3206 12.0489 11.8049 12.5644L10.3511 14.0183C10.1841 14.1912 10.0917 14.4227 10.0938 14.6631C10.0959 14.9034 10.1923 15.1333 10.3622 15.3033C10.5322 15.4732 10.7621 15.5696 11.0025 15.5717C11.2428 15.5738 11.4744 15.4814 11.6472 15.3144L12.8325 14.1292V21.083C12.8325 21.3261 12.9291 21.5593 13.101 21.7312C13.2729 21.9031 13.506 21.9997 13.7492 21.9997C13.9923 21.9997 14.2254 21.9031 14.3973 21.7312C14.5692 21.5593 14.6658 21.3261 14.6658 21.083V14.1292L15.8511 15.3144C16.023 15.4863 16.2561 15.5828 16.4992 15.5828C16.7422 15.5828 16.9753 15.4863 17.1472 15.3144Z" fill="#374957"/>
</svg>
