<svg width="14" height="9" viewBox="0 0 14 9" fill="none" xmlns="http://www.w3.org/2000/svg">
<path d="M1.5844 0.676758H12.6187C12.8139 0.677632 13.0045 0.740334 13.1663 0.856933C13.3282 0.973533 13.454 1.1388 13.528 1.33182C13.6019 1.52485 13.6207 1.73697 13.5818 1.94137C13.5429 2.14576 13.4482 2.33325 13.3096 2.48013L7.80231 8.36481C7.71056 8.46366 7.6014 8.54211 7.48113 8.59565C7.36086 8.64919 7.23185 8.67676 7.10156 8.67676C6.97127 8.67676 6.84227 8.64919 6.722 8.59565C6.60172 8.54211 6.49256 8.46366 6.40081 8.36481L0.893516 2.48013C0.754924 2.33325 0.660203 2.14576 0.621331 1.94137C0.582459 1.73697 0.601181 1.52485 0.675131 1.33182C0.74908 1.1388 0.874936 0.973533 1.03678 0.856933C1.19863 0.740334 1.3892 0.677632 1.5844 0.676758Z" fill="#374957"/>
</svg>
