<svg width="72" height="17" viewBox="0 0 72 17" fill="none" xmlns="http://www.w3.org/2000/svg">
<g clip-path="url(#clip0_77_59)">
<path d="M20.416 6.74467C20.2183 6.50967 19.9687 6.31836 19.6848 6.18411C19.4122 6.06525 19.1148 6.00611 18.8147 6.0111C18.4932 6.00415 18.1739 6.06317 17.8788 6.18411C17.6173 6.29315 17.3868 6.45914 17.2061 6.66854C17.0281 6.88149 16.8919 7.12291 16.8039 7.38135C16.7122 7.66151 16.6654 7.9531 16.665 8.2464C16.663 8.54098 16.7149 8.83367 16.8186 9.11145C16.9167 9.37132 17.0628 9.61265 17.25 9.82425C17.4338 10.0306 17.6635 10.196 17.9226 10.3087C18.1978 10.4276 18.4976 10.4867 18.8001 10.4817C19.4947 10.4817 20.0358 10.2326 20.416 9.73429L21.2056 10.4402C20.912 10.7629 20.5409 11.0145 20.1235 11.1737C19.7036 11.3265 19.2572 11.404 18.8074 11.4021C18.35 11.4077 17.8958 11.3302 17.4693 11.1737C17.0761 11.0299 16.7215 10.8054 16.431 10.5163C16.1421 10.2262 15.916 9.88526 15.7657 9.51283C15.6041 9.1084 15.5247 8.67872 15.5317 8.2464C15.529 7.81665 15.6082 7.38998 15.7657 6.98688C15.9158 6.61275 16.1447 6.27137 16.4383 5.98342C16.7315 5.69731 17.0853 5.47324 17.4766 5.32598C17.9016 5.16384 18.3565 5.08383 18.8147 5.09069C19.2717 5.0888 19.7252 5.1662 20.1527 5.31906C20.5749 5.47439 20.953 5.72083 21.2568 6.03878L20.416 6.74467Z" fill="#04293A"/>
<path d="M22.4341 1.54744H23.4943V6.07339H23.5235C23.6051 5.94276 23.7061 5.8239 23.8233 5.72045C23.9579 5.59657 24.1105 5.49169 24.2767 5.40903C24.6705 5.20217 25.1131 5.09268 25.5635 5.09069C25.9308 5.08327 26.2961 5.14441 26.6384 5.27062C26.9269 5.37916 27.1847 5.54975 27.3915 5.76889C27.5956 5.99397 27.7453 6.25848 27.8302 6.54398C27.9268 6.86812 27.9736 7.20375 27.9691 7.54052V11.2499H26.9089V7.64432C26.9089 7.13913 26.7919 6.74467 26.5579 6.45401C26.324 6.16335 25.9584 6.01802 25.4612 6.01802C25.1569 6.01063 24.8547 6.06737 24.5764 6.18411C24.3331 6.28973 24.1237 6.45449 23.9696 6.66162C23.8021 6.88158 23.6828 7.13098 23.6186 7.39519C23.5402 7.70104 23.5009 8.01471 23.5016 8.32944V11.2568H22.4341V1.54744Z" fill="#04293A"/>
<path d="M32.912 6.09415H32.8827C32.232 6.09415 31.7567 6.29484 31.4643 6.68931C31.1718 7.08377 31.0255 7.63048 31.0255 8.32252V11.2499H29.9653V5.24986H30.9378V6.23948H30.9671C31.0473 6.08544 31.1507 5.94324 31.2741 5.81733C31.4118 5.67551 31.5692 5.55211 31.7421 5.45055C31.9317 5.3405 32.1358 5.25441 32.349 5.1945C32.5866 5.12942 32.8328 5.0968 33.0802 5.09761C33.1533 5.09761 33.2264 5.10453 33.2995 5.11145C33.3741 5.121 33.4475 5.13722 33.5189 5.15989L32.912 6.09415Z" fill="#04293A"/>
<path d="M34.1257 8.2464C34.1202 7.80777 34.2072 7.37251 34.3817 6.96612C34.5412 6.59125 34.7807 6.25153 35.0851 5.96815C35.3896 5.68477 35.7524 5.46381 36.1511 5.31906C36.5832 5.16439 37.0419 5.08695 37.5038 5.09069C37.9658 5.08573 38.4247 5.1632 38.8565 5.31906C39.258 5.46005 39.6222 5.68202 39.924 5.96958C40.2281 6.25241 40.4671 6.59169 40.6259 6.96612C40.9672 7.78909 40.9672 8.70371 40.6259 9.52668C40.4664 9.90155 40.2269 10.2413 39.9225 10.5247C39.618 10.808 39.2552 11.029 38.8565 11.1737C38.4244 11.3284 37.9657 11.4058 37.5038 11.4021C37.0418 11.4071 36.5829 11.3296 36.1511 11.1737C35.7496 11.0327 35.3854 10.8108 35.0836 10.5232C34.7795 10.2404 34.5406 9.90109 34.3817 9.52668C34.2072 9.12029 34.1202 8.68502 34.1257 8.2464ZM35.2664 8.2464C35.2633 8.54558 35.3152 8.84299 35.4199 9.12529C35.5186 9.38741 35.6728 9.62763 35.8733 9.83117C36.2025 10.1431 36.6225 10.355 37.0796 10.4401C37.5367 10.5251 38.0102 10.4794 38.4397 10.3087C38.7083 10.1966 38.9499 10.0338 39.1498 9.83035C39.3497 9.62688 39.5037 9.38698 39.6023 9.12529C39.8071 8.5554 39.8071 7.9374 39.6023 7.36751C39.5037 7.10537 39.3494 6.86513 39.149 6.66162C38.8197 6.34973 38.3997 6.13774 37.9426 6.05269C37.4855 5.96764 37.012 6.0134 36.5825 6.18412C36.3139 6.29624 36.0723 6.45901 35.8724 6.66248C35.6725 6.86594 35.5186 7.10583 35.4199 7.36751C35.3152 7.6498 35.2632 7.94721 35.2663 8.2464H35.2664Z" fill="#04293A"/>
<path d="M42.5415 5.24294H43.514V6.23256H43.5432C43.6235 6.07852 43.7269 5.93633 43.8503 5.81041C43.988 5.66859 44.1454 5.54519 44.3183 5.44363C44.5079 5.33358 44.7119 5.24749 44.9252 5.18758C45.1628 5.1225 45.409 5.08988 45.6563 5.09069C46.0236 5.08327 46.3889 5.14441 46.7312 5.27062C47.0197 5.37916 47.2775 5.54975 47.4843 5.76889C47.6884 5.99397 47.8381 6.25849 47.923 6.54398C48.0196 6.86813 48.0664 7.20375 48.0619 7.54052V11.2499H47.0017V7.64432C47.0017 7.13913 46.8847 6.74467 46.6507 6.45401C46.4168 6.16335 46.0512 6.01803 45.554 6.01803C45.2497 6.01062 44.9475 6.06735 44.6692 6.18412C44.4259 6.28972 44.2165 6.45449 44.0624 6.66162C43.8949 6.88158 43.7756 7.13099 43.7114 7.39519C43.633 7.70105 43.5937 8.01471 43.5944 8.32945V11.2568H42.5415V5.24294Z" fill="#04293A"/>
<path d="M49.7145 8.2464C49.709 7.80777 49.796 7.37251 49.9704 6.96612C50.13 6.59125 50.3695 6.25153 50.6739 5.96815C50.9783 5.68477 51.3412 5.46381 51.7399 5.31906C52.172 5.16439 52.6306 5.08695 53.0926 5.09069C53.5546 5.08573 54.0135 5.1632 54.4453 5.31906C54.8467 5.46008 55.211 5.68205 55.5128 5.96958C55.8168 6.25243 56.0558 6.59171 56.2147 6.96612C56.556 7.78909 56.556 8.70371 56.2147 9.52668C56.0486 9.89748 55.8105 10.2355 55.5128 10.5232C55.2046 10.8032 54.8421 11.0241 54.4453 11.1737C54.0132 11.3284 53.5545 11.4058 53.0926 11.4021C52.6305 11.4071 52.1716 11.3296 51.7399 11.1737C51.3384 11.0328 50.9741 10.8108 50.6724 10.5232C50.3683 10.2404 50.1293 9.90111 49.9704 9.52668C49.7925 9.12125 49.7054 8.68531 49.7145 8.2464ZM50.8478 8.2464C50.8447 8.54558 50.8966 8.843 51.0014 9.12529C51.1 9.38742 51.2543 9.62765 51.4547 9.83117C51.784 10.1431 52.204 10.3551 52.6611 10.4401C53.1182 10.5252 53.5917 10.4794 54.0212 10.3087C54.2898 10.1966 54.5314 10.0338 54.7313 9.83033C54.9311 9.62686 55.0851 9.38697 55.1838 9.12529C55.3885 8.55538 55.3885 7.93741 55.1838 7.36751C55.0852 7.10538 54.9309 6.86515 54.7304 6.66162C54.4012 6.34972 53.9812 6.13772 53.5241 6.05268C53.067 5.96763 52.5935 6.01339 52.164 6.18412C51.8954 6.29624 51.6538 6.45901 51.4539 6.66247C51.254 6.86594 51.1 7.10583 51.0014 7.36751C50.8966 7.6498 50.8447 7.94722 50.8478 8.2464Z" fill="#04293A"/>
<path d="M57.8013 10.018L61.4206 6.68239C61.6473 6.47477 61.8447 6.28792 62.0202 6.11491C62.1776 5.95671 62.3196 5.7853 62.4443 5.6028C62.5537 5.44233 62.6375 5.26743 62.6929 5.08377C62.7475 4.8873 62.7746 4.68486 62.7733 4.48169C62.7783 4.26004 62.7308 4.04014 62.6344 3.8381C62.5476 3.65353 62.4205 3.48844 62.2615 3.35367C62.0987 3.21927 61.91 3.11588 61.7058 3.04917C61.4848 2.97603 61.2525 2.93859 61.0185 2.93844C60.5287 2.93844 60.1265 3.06993 59.812 3.33291C59.4897 3.60836 59.2757 3.97924 59.2051 4.38481L57.9694 4.281C58.0265 3.93596 58.1478 3.60323 58.3277 3.2983C58.495 3.01969 58.7216 2.77698 58.9931 2.5855C59.2649 2.39513 59.5691 2.25003 59.8924 2.15644C60.2435 2.0574 60.6082 2.00842 60.9746 2.01111C61.3563 2.01005 61.7359 2.06371 62.1006 2.17028C62.4398 2.26796 62.7553 2.42786 63.0292 2.64086C63.3136 2.86252 63.5401 3.14333 63.691 3.46143C63.842 3.77953 63.9132 4.12632 63.8993 4.47477C63.9039 4.80573 63.8521 5.13523 63.7458 5.45055C63.6471 5.73523 63.5068 6.00544 63.329 6.25332C63.152 6.50092 62.9513 6.73258 62.7294 6.94536C62.5101 7.1599 62.2761 7.38135 62.0348 7.59588L59.0808 10.2256V10.2533H63.9724V11.2568H57.7939V10.018H57.8013Z" fill="#C39052"/>
<path d="M70.3413 10.2464H71.7232L71.0578 11.2499H70.3413V13.326H69.2006V11.2499H65.1353V10.0595L68.9447 4.2464H70.3413V10.2464ZM69.2006 5.49899H69.1714L66.1077 10.2464H69.2006V5.49899Z" fill="#C39052"/>
<path d="M9.18496 9.03533L4.27881 4.64778L5.09773 3.82425L9.15579 7.45055L11.8977 4.81387L12.7459 5.60972L9.18496 9.03533Z" fill="#C39052"/>
<path d="M9.17053 16.2464C7.75724 16.2456 6.36672 15.9094 5.12617 15.2686C3.88563 14.6277 2.83466 13.7027 2.06942 12.5781C1.30417 11.4535 0.849077 10.1653 0.745762 8.83122C0.642447 7.49716 0.894211 6.15987 1.47802 4.9417C2.06184 3.72352 2.95906 2.66335 4.08762 1.85815C5.21617 1.05295 6.54004 0.528444 7.9381 0.332603C9.33616 0.136762 10.7638 0.275841 12.0904 0.737118C13.417 1.19839 14.6002 1.96714 15.5318 2.97304L14.6325 3.72044C13.6609 2.66898 12.3736 1.92305 10.9424 1.58224C9.5112 1.24143 8.0042 1.32196 6.62261 1.81308C5.24103 2.30419 4.05061 3.18253 3.21031 4.33081C2.37 5.47909 1.91979 6.84266 1.91979 8.23948C1.91979 9.63629 2.37 10.9999 3.21031 12.1481C4.05061 13.2964 5.24103 14.1748 6.62261 14.6659C8.0042 15.157 9.5112 15.2375 10.9424 14.8967C12.3736 14.5559 13.6609 13.81 14.6325 12.7585L15.5318 13.5059C14.7402 14.3667 13.7627 15.0567 12.6654 15.5295C11.568 16.0022 10.3762 16.2467 9.17053 16.2464Z" fill="#04293A"/>
</g>
<defs>
<clipPath id="clip0_77_59">
<rect width="71" height="16" fill="white" transform="translate(0.723145 0.246399)"/>
</clipPath>
</defs>
</svg>
