<svg width="24" height="25" viewBox="0 0 24 25" fill="none" xmlns="http://www.w3.org/2000/svg">
<g clip-path="url(#clip0_884_3855)">
<path d="M18.7458 20.39C18.8334 20.488 18.9007 20.6024 18.9441 20.7265C18.9874 20.8506 19.0058 20.982 18.9983 21.1133C18.9908 21.2445 18.9574 21.373 18.9002 21.4913C18.843 21.6097 18.763 21.7156 18.6648 21.803L17.0788 23.217C16.8071 23.486 16.4848 23.6986 16.1306 23.8426C15.7764 23.9866 15.3972 24.0591 15.0148 24.056C14.6183 24.0568 14.2254 23.9793 13.8589 23.8279C13.4924 23.6766 13.1593 23.4543 12.8788 23.174L11.3348 21.8C11.2367 21.7127 11.1568 21.6069 11.0996 21.4886C11.0424 21.3704 11.009 21.2421 11.0014 21.111C10.986 20.8462 11.0764 20.5861 11.2528 20.388C11.4292 20.1899 11.677 20.0699 11.9418 20.0546C12.0729 20.0469 12.2043 20.0652 12.3283 20.1084C12.4524 20.1515 12.5667 20.2187 12.6648 20.306L13.9998 21.5V14.056C13.9998 13.7908 14.1052 13.5364 14.2927 13.3489C14.4802 13.1613 14.7346 13.056 14.9998 13.056C15.265 13.056 15.5194 13.1613 15.7069 13.3489C15.8945 13.5364 15.9998 13.7908 15.9998 14.056V21.501L17.3348 20.309C17.5327 20.1328 17.7925 20.0423 18.0571 20.0575C18.3216 20.0727 18.5694 20.1923 18.7458 20.39ZM18.3558 7.41699C18.1841 7.36367 18.0283 7.26863 17.9023 7.14037C17.7763 7.01211 17.6841 6.85462 17.6338 6.68199C17.1043 4.98208 16.0229 3.50738 14.5608 2.4914C13.0986 1.47542 11.3394 0.976235 9.56151 1.07288C7.78367 1.16953 6.08888 1.85648 4.74549 3.02497C3.40211 4.19346 2.48691 5.7767 2.14482 7.52399C1.7938 9.291 2.07708 11.1252 2.94482 12.704C1.93326 13.2262 1.11072 14.0522 0.592733 15.066C0.0747427 16.0797 -0.112671 17.2303 0.0568164 18.356C0.317468 19.6638 1.01763 20.8431 2.04103 21.6981C3.06444 22.553 4.3495 23.0322 5.68282 23.056H7.99982C8.26503 23.056 8.51939 22.9506 8.70692 22.7631C8.89446 22.5756 8.99982 22.3212 8.99982 22.056C8.99982 21.7908 8.89446 21.5364 8.70692 21.3489C8.51939 21.1613 8.26503 21.056 7.99982 21.056H5.68282C4.82877 21.0396 4.00502 20.7367 3.34381 20.1959C2.6826 19.6551 2.2223 18.9078 2.03682 18.074C1.92823 17.3576 2.04671 16.6251 2.37564 15.9794C2.70457 15.3338 3.22742 14.8073 3.87082 14.474C4.32941 14.2205 4.66974 13.7967 4.81816 13.2942C4.96657 12.7917 4.91112 12.2509 4.66382 11.789C4.27553 11.0484 4.04631 10.2349 3.99087 9.40057C3.93544 8.56624 4.055 7.72953 4.3419 6.94412C4.6288 6.15871 5.0767 5.44194 5.65686 4.83978C6.23702 4.23762 6.93664 3.76338 7.71084 3.44747C8.48504 3.13156 9.31672 2.98096 10.1525 3.00533C10.9884 3.0297 11.8099 3.2285 12.5643 3.58898C13.3188 3.94947 13.9896 4.46367 14.5337 5.0986C15.0778 5.73354 15.4832 6.47519 15.7238 7.27599C15.8718 7.7587 16.1355 8.19795 16.4919 8.55557C16.8483 8.91319 17.2866 9.17834 17.7688 9.32799C19.0751 9.72548 20.2057 10.5587 20.9722 11.6887C21.7386 12.8187 22.0946 14.1773 21.9808 15.538C21.9055 16.596 21.519 17.6081 20.8698 18.447C20.7082 18.6573 20.6367 18.9232 20.6711 19.1862C20.7055 19.4493 20.843 19.6878 21.0533 19.8495C21.2636 20.0111 21.5296 20.0826 21.7926 20.0482C22.0556 20.0138 22.2942 19.8763 22.4558 19.666C23.3368 18.5173 23.8649 17.1374 23.9758 15.694C24.1268 13.8797 23.6514 12.0684 22.6287 10.5622C21.606 9.05602 20.0979 7.94591 18.3558 7.41699Z" fill="#FFC46B"/>
</g>
<defs>
<clipPath id="clip0_884_3855">
<rect width="24" height="24" fill="white" transform="translate(0 0.0559082)"/>
</clipPath>
</defs>
</svg>
