<svg width="24" height="25" viewBox="0 0 24 25" fill="none" xmlns="http://www.w3.org/2000/svg">
<g clip-path="url(#clip0_827_2275)">
<path d="M15.9994 8.63978C15.8119 8.45231 15.5576 8.34699 15.2924 8.34699C15.0273 8.34699 14.773 8.45231 14.5854 8.63978L11.9995 11.2258L9.41346 8.63978C9.22486 8.45762 8.97226 8.35683 8.71006 8.35911C8.44786 8.36138 8.19705 8.46655 8.01164 8.65196C7.82623 8.83737 7.72107 9.08818 7.71879 9.35038C7.71651 9.61257 7.8173 9.86518 7.99946 10.0538L10.5855 12.6398L7.99946 15.2258C7.8173 15.4144 7.71651 15.667 7.71879 15.9292C7.72107 16.1914 7.82623 16.4422 8.01164 16.6276C8.19705 16.813 8.44786 16.9182 8.71006 16.9205C8.97226 16.9227 9.22486 16.8219 9.41346 16.6398L11.9995 14.0538L14.5854 16.6398C14.7741 16.8219 15.0267 16.9227 15.2888 16.9205C15.551 16.9182 15.8019 16.813 15.9873 16.6276C16.1727 16.4422 16.2778 16.1914 16.2801 15.9292C16.2824 15.667 16.1816 15.4144 15.9994 15.2258L13.4135 12.6398L15.9994 10.0538C16.1869 9.86625 16.2922 9.61194 16.2922 9.34678C16.2922 9.08161 16.1869 8.82731 15.9994 8.63978Z" fill="#374957"/>
<path d="M12 0.639648C9.62663 0.639648 7.30655 1.34344 5.33316 2.66201C3.35977 3.98059 1.8217 5.85473 0.913451 8.04745C0.00519943 10.2402 -0.232441 12.653 0.230582 14.9807C0.693605 17.3085 1.83649 19.4467 3.51472 21.1249C5.19295 22.8032 7.33115 23.9461 9.65892 24.4091C11.9867 24.8721 14.3995 24.6345 16.5922 23.7262C18.7849 22.818 20.6591 21.2799 21.9776 19.3065C23.2962 17.3331 24 15.013 24 12.6397C23.9966 9.45811 22.7312 6.40786 20.4815 4.15817C18.2318 1.90848 15.1815 0.64309 12 0.639648V0.639648ZM12 22.6397C10.0222 22.6397 8.08879 22.0532 6.4443 20.9543C4.79981 19.8555 3.51809 18.2937 2.76121 16.4665C2.00433 14.6392 1.8063 12.6286 2.19215 10.6887C2.578 8.74894 3.53041 6.96711 4.92894 5.56858C6.32746 4.17006 8.10929 3.21765 10.0491 2.8318C11.9889 2.44594 13.9996 2.64398 15.8268 3.40085C17.6541 4.15773 19.2159 5.43946 20.3147 7.08395C21.4135 8.72844 22 10.6618 22 12.6397C21.9971 15.2909 20.9426 17.8328 19.0679 19.7075C17.1931 21.5822 14.6513 22.6367 12 22.6397Z" fill="#374957"/>
</g>
<defs>
<clipPath id="clip0_827_2275">
<rect width="24" height="24" fill="white" transform="translate(0 0.639648)"/>
</clipPath>
</defs>
</svg>
