<svg width="25" height="25" viewBox="0 0 25 25" fill="none" xmlns="http://www.w3.org/2000/svg">
<g clip-path="url(#clip0_558_468)">
<path d="M1.76367 6.5003H23.7637C24.0289 6.5003 24.2832 6.39494 24.4708 6.20741C24.6583 6.01987 24.7637 5.76552 24.7637 5.5003C24.7637 5.23509 24.6583 4.98073 24.4708 4.7932C24.2832 4.60566 24.0289 4.50031 23.7637 4.50031H1.76367C1.49846 4.50031 1.2441 4.60566 1.05657 4.7932C0.869029 4.98073 0.763672 5.23509 0.763672 5.5003C0.763672 5.76552 0.869029 6.01987 1.05657 6.20741C1.2441 6.39494 1.49846 6.5003 1.76367 6.5003Z" fill="#374957"/>
<path d="M23.7637 9.5H9.76367C9.49846 9.5 9.2441 9.60536 9.05657 9.79289C8.86903 9.98043 8.76367 10.2348 8.76367 10.5C8.76367 10.7652 8.86903 11.0196 9.05657 11.2071C9.2441 11.3946 9.49846 11.5 9.76367 11.5H23.7637C24.0289 11.5 24.2832 11.3946 24.4708 11.2071C24.6583 11.0196 24.7637 10.7652 24.7637 10.5C24.7637 10.2348 24.6583 9.98043 24.4708 9.79289C24.2832 9.60536 24.0289 9.5 23.7637 9.5Z" fill="#374957"/>
<path d="M23.7637 19.5003H1.76367C1.49846 19.5003 1.2441 19.6057 1.05657 19.7932C0.869029 19.9808 0.763672 20.2351 0.763672 20.5003C0.763672 20.7655 0.869029 21.0199 1.05657 21.2074C1.2441 21.395 1.49846 21.5003 1.76367 21.5003H23.7637C24.0289 21.5003 24.2832 21.395 24.4708 21.2074C24.6583 21.0199 24.7637 20.7655 24.7637 20.5003C24.7637 20.2351 24.6583 19.9808 24.4708 19.7932C24.2832 19.6057 24.0289 19.5003 23.7637 19.5003Z" fill="#374957"/>
<path d="M23.7637 14.4997H9.76367C9.49846 14.4997 9.2441 14.605 9.05657 14.7926C8.86903 14.9801 8.76367 15.2345 8.76367 15.4997C8.76367 15.7649 8.86903 16.0193 9.05657 16.2068C9.2441 16.3943 9.49846 16.4997 9.76367 16.4997H23.7637C24.0289 16.4997 24.2832 16.3943 24.4708 16.2068C24.6583 16.0193 24.7637 15.7649 24.7637 15.4997C24.7637 15.2345 24.6583 14.9801 24.4708 14.7926C24.2832 14.605 24.0289 14.4997 23.7637 14.4997Z" fill="#374957"/>
<path d="M2.47067 16.7449L5.44467 13.7709C5.64875 13.5662 5.76335 13.2889 5.76335 12.9999C5.76335 12.7108 5.64875 12.4336 5.44467 12.2289L2.47067 9.25488C2.33076 9.11501 2.1525 9.01979 1.95846 8.98125C1.76441 8.94272 1.5633 8.9626 1.38056 9.0384C1.19781 9.11419 1.04166 9.24249 0.931854 9.40705C0.822045 9.57161 0.763517 9.76505 0.763672 9.96288V16.0369C0.763517 16.2347 0.822045 16.4282 0.931854 16.5927C1.04166 16.7573 1.19781 16.8856 1.38056 16.9614C1.5633 17.0372 1.76441 17.0571 1.95846 17.0185C2.1525 16.98 2.33076 16.8848 2.47067 16.7449Z" fill="#374957"/>
</g>
<defs>
<clipPath id="clip0_558_468">
<rect width="24" height="24" fill="white" transform="translate(0.763672 0.5)"/>
</clipPath>
</defs>
</svg>
