<svg width="32" height="31" viewBox="0 0 32 31" fill="none" xmlns="http://www.w3.org/2000/svg">
<path d="M26.0431 24.1932L21.8541 20.0042C23.1237 18.3422 23.82 16.3264 23.8202 14.1992C23.8202 11.6357 22.8219 9.2255 21.0089 7.41288C19.1963 5.60026 16.7864 4.60187 14.2226 4.60187C11.6592 4.60187 9.24895 5.60026 7.43633 7.41288C3.6944 11.1551 3.6944 17.2439 7.43633 20.9855C9.24895 22.7984 11.6592 23.7968 14.2226 23.7968C16.3498 23.7965 18.3657 23.1002 20.0276 21.8307L24.2166 26.0197C24.4686 26.272 24.7994 26.3981 25.1299 26.3981C25.4604 26.3981 25.7912 26.272 26.0431 26.0197C26.5477 25.5155 26.5477 24.6974 26.0431 24.1932ZM9.26282 19.159C6.52812 16.4243 6.52844 11.9744 9.26282 9.23938C10.5876 7.91492 12.3491 7.1852 14.2226 7.1852C16.0964 7.1852 17.8576 7.91492 19.1824 9.23938C20.5072 10.5642 21.2369 12.3257 21.2369 14.1992C21.2369 16.073 20.5072 17.8342 19.1824 19.159C17.8576 20.4838 16.0964 21.2135 14.2226 21.2135C12.3491 21.2135 10.5876 20.4838 9.26282 19.159Z" fill="black"/>
</svg>
