<svg width="31" height="31" viewBox="0 0 31 31" fill="none" xmlns="http://www.w3.org/2000/svg">
<path fill-rule="evenodd" clip-rule="evenodd" d="M14.1649 1.61458H16.8351C18.6068 1.61458 19.9959 1.61457 21.1124 1.70578C22.2492 1.79867 23.1884 1.99094 24.0384 2.42408C25.436 3.13614 26.5722 4.27234 27.2843 5.66983C27.7174 6.51993 27.9097 7.4591 28.0026 8.59596C28.0937 9.7124 28.0938 11.1015 28.0938 12.8733V16.4341C28.0938 16.7654 28.0938 16.9671 28.0855 17.1429C27.9043 20.9687 24.8437 24.0293 21.0179 24.2105C20.8421 24.2187 20.62 24.2187 20.2518 24.2187H20.2151L20.1178 24.2189C18.9977 24.226 17.9066 24.5758 16.991 25.221L16.9274 25.2662L13.5553 27.6749C11.612 29.0629 9.0583 27.0583 9.94524 24.8409C10.0644 24.543 9.84497 24.2187 9.52399 24.2187H8.74673C5.52111 24.2187 2.90625 21.6039 2.90625 18.3782V12.8733C2.90625 11.1015 2.90624 9.71241 2.99745 8.59596C3.09034 7.4591 3.28262 6.51993 3.71575 5.66983C4.42781 4.27234 5.56401 3.13614 6.9615 2.42408C7.8116 1.99094 8.75077 1.79867 9.88763 1.70578C11.0041 1.61457 12.3932 1.61458 14.1649 1.61458ZM10.0454 3.63685C9.02836 3.71994 8.37254 3.87963 7.84111 4.1504C6.80818 4.67671 5.96838 5.51651 5.44208 6.54944C5.1713 7.08087 5.01161 7.73669 4.92852 8.75372C4.8445 9.78207 4.84375 11.0922 4.84375 12.9167V18.3782C4.84375 20.5339 6.59117 22.2812 8.74673 22.2812H9.52399C11.2157 22.2812 12.3724 23.9899 11.7442 25.5605C11.5759 25.9812 12.0604 26.3616 12.4291 26.0982L15.8748 23.6371C17.1137 22.7642 18.5899 22.2911 20.1054 22.2814L20.2151 22.2812C20.6306 22.2812 20.8027 22.281 20.9263 22.275C23.754 22.1412 26.0162 19.879 26.15 17.0513C26.156 16.9273 26.1562 16.775 26.1562 16.4026V12.9167C26.1562 11.0922 26.1555 9.78207 26.0715 8.75372C25.9883 7.73669 25.8287 7.08087 25.5579 6.54944C25.0316 5.51651 24.1918 4.67671 23.1589 4.1504C22.6274 3.87963 21.9716 3.71994 20.9546 3.63685C19.9263 3.55283 18.6161 3.55208 16.7917 3.55208H14.2083C12.3838 3.55208 11.0737 3.55283 10.0454 3.63685Z" fill="black"/>
<path d="M11.6248 12.9167C11.6248 13.6301 11.0465 14.2083 10.3332 14.2083C9.61981 14.2083 9.0415 13.6301 9.0415 12.9167C9.0415 12.2033 9.61981 11.625 10.3332 11.625C11.0465 11.625 11.6248 12.2033 11.6248 12.9167Z" fill="black"/>
<path d="M16.7918 12.9167C16.7918 13.6301 16.2136 14.2083 15.5002 14.2083C14.7868 14.2083 14.2085 13.6301 14.2085 12.9167C14.2085 12.2033 14.7868 11.625 15.5002 11.625C16.2136 11.625 16.7918 12.2033 16.7918 12.9167Z" fill="black"/>
<path d="M21.9583 12.9167C21.9583 13.6301 21.3801 14.2083 20.6667 14.2083C19.9533 14.2083 19.375 13.6301 19.375 12.9167C19.375 12.2033 19.9533 11.625 20.6667 11.625C21.3801 11.625 21.9583 12.2033 21.9583 12.9167Z" fill="black"/>
</svg>
