<svg width="31" height="31" viewBox="0 0 31 31" fill="none" xmlns="http://www.w3.org/2000/svg">
<g clip-path="url(#clip0_302_95)">
<path d="M0.289053 14.6405C0.557062 14.2739 6.9428 5.66357 15.0985 5.66357C23.2543 5.66357 29.6403 14.2739 29.908 14.6402C30.1618 14.988 30.1618 15.4597 29.908 15.8075C29.6403 16.1741 23.2543 24.7845 15.0985 24.7845C6.9428 24.7845 0.557062 16.1741 0.289053 15.8078C0.0348721 15.4601 0.0348721 14.988 0.289053 14.6405ZM15.0985 22.8064C21.1061 22.8064 26.3093 17.0916 27.8496 15.2233C26.3113 13.3534 21.119 7.64159 15.0985 7.64159C9.09126 7.64159 3.88841 13.3554 2.34751 15.2247C3.88578 17.0945 9.07807 22.8064 15.0985 22.8064Z" fill="black"/>
<path d="M15.0986 9.29004C18.3706 9.29004 21.0327 11.9521 21.0327 15.2241C21.0327 18.4961 18.3706 21.1582 15.0986 21.1582C11.8266 21.1582 9.16447 18.4961 9.16447 15.2241C9.16447 11.9521 11.8266 9.29004 15.0986 9.29004ZM15.0986 19.1802C17.28 19.1802 19.0546 17.4055 19.0546 15.2241C19.0546 13.0427 17.28 11.2681 15.0986 11.2681C12.9172 11.2681 11.1425 13.0427 11.1425 15.2241C11.1425 17.4055 12.9171 19.1802 15.0986 19.1802Z" fill="black"/>
</g>
<defs>
<clipPath id="clip0_302_95">
<rect width="30" height="30" fill="white" transform="matrix(-1 0 0 1 30.0984 0.224121)"/>
</clipPath>
</defs>
</svg>
