<svg width="25" height="25" viewBox="0 0 25 25" fill="none" xmlns="http://www.w3.org/2000/svg">
<g clip-path="url(#clip0_827_2435)">
<path d="M21.2773 4.30898H18.1773C17.9452 3.1804 17.3312 2.16633 16.4386 1.4377C15.546 0.709073 14.4295 0.310437 13.2773 0.308983L11.2773 0.308983C10.1251 0.310437 9.00866 0.709073 8.11609 1.4377C7.22352 2.16633 6.60944 3.1804 6.37734 4.30898H3.27734C3.01213 4.30898 2.75777 4.41434 2.57024 4.60188C2.3827 4.78941 2.27734 5.04377 2.27734 5.30898C2.27734 5.5742 2.3827 5.82855 2.57024 6.01609C2.75777 6.20363 3.01213 6.30898 3.27734 6.30898H4.27734V19.309C4.27893 20.6346 4.80623 21.9054 5.74356 22.8428C6.6809 23.7801 7.95175 24.3074 9.27734 24.309H15.2773C16.6029 24.3074 17.8738 23.7801 18.8111 22.8428C19.7485 21.9054 20.2758 20.6346 20.2773 19.309V6.30898H21.2773C21.5426 6.30898 21.7969 6.20363 21.9845 6.01609C22.172 5.82855 22.2773 5.5742 22.2773 5.30898C22.2773 5.04377 22.172 4.78941 21.9845 4.60188C21.7969 4.41434 21.5426 4.30898 21.2773 4.30898ZM11.2773 2.30898H13.2773C13.8976 2.30974 14.5025 2.50236 15.009 2.86043C15.5154 3.21849 15.8988 3.72447 16.1063 4.30898H8.44834C8.65593 3.72447 9.03924 3.21849 9.54573 2.86043C10.0522 2.50236 10.6571 2.30974 11.2773 2.30898ZM18.2773 19.309C18.2773 20.1046 17.9613 20.8677 17.3987 21.4303C16.8361 21.9929 16.073 22.309 15.2773 22.309H9.27734C8.48169 22.309 7.71863 21.9929 7.15602 21.4303C6.59341 20.8677 6.27734 20.1046 6.27734 19.309V6.30898H18.2773V19.309Z" fill="#374957"/>
<path d="M10.2773 18.3083C10.5426 18.3083 10.7969 18.203 10.9844 18.0155C11.172 17.8279 11.2773 17.5736 11.2773 17.3084V11.3084C11.2773 11.0431 11.172 10.7888 10.9844 10.6013C10.7969 10.4137 10.5426 10.3084 10.2773 10.3084C10.0121 10.3084 9.75777 10.4137 9.57024 10.6013C9.3827 10.7888 9.27734 11.0431 9.27734 11.3084V17.3084C9.27734 17.5736 9.3827 17.8279 9.57024 18.0155C9.75777 18.203 10.0121 18.3083 10.2773 18.3083Z" fill="#374957"/>
<path d="M14.2773 18.3083C14.5426 18.3083 14.7969 18.203 14.9845 18.0155C15.172 17.8279 15.2774 17.5736 15.2774 17.3084V11.3084C15.2774 11.0431 15.172 10.7888 14.9845 10.6013C14.7969 10.4137 14.5426 10.3084 14.2773 10.3084C14.0121 10.3084 13.7578 10.4137 13.5702 10.6013C13.3827 10.7888 13.2773 11.0431 13.2773 11.3084V17.3084C13.2773 17.5736 13.3827 17.8279 13.5702 18.0155C13.7578 18.203 14.0121 18.3083 14.2773 18.3083Z" fill="#374957"/>
</g>
<defs>
<clipPath id="clip0_827_2435">
<rect width="24" height="24" fill="white" transform="translate(0.277344 0.30899)"/>
</clipPath>
</defs>
</svg>
